<svg width="240" height="240" viewBox="0 0 24 24" fill="none" xmlns="http://www.w3.org/2000/svg">
    <path d="M16.71,23.29A1.0528,1.0528,0,0,1,17,24a1,1,0,1,1-2,0,1,1,0,0,1,1.71-.71Zm.0068-12.2275A4.0025,4.0025,0,0,0,12,15a1,1,0,0,0,2,0,2.0023,2.0023,0,0,1,2.3711-1.9668,2.0009,2.0009,0,0,1,.3916,3.8164A2.9177,2.9177,0,0,0,15,19.58V21a1,1,0,0,0,2,0V19.58a.94.94,0,0,1,.5273-.8828,3.9924,3.9924,0,0,0,2.41-4.4141A4.034,4.034,0,0,0,16.7168,11.0625ZM26,9V27a3.0033,3.0033,0,0,1-3,3H9a3.0033,3.0033,0,0,1-3-3V5A3.0033,3.0033,0,0,1,9,2H19a1.0053,1.0053,0,0,1,.7083.2943l5.9974,5.9974A1.0053,1.0053,0,0,1,26,9ZM20,8h2.5859L20,5.4141Zm4,2H19a1,1,0,0,1-1-1V4H9A1.0006,1.0006,0,0,0,8,5V27a1.0006,1.0006,0,0,0,1,1H23a1.0006,1.0006,0,0,0,1-1Z"/></svg>